<?xml version="1.0" encoding="utf-8"?>
<!-- Generator: Adobe Illustrator 19.2.1, SVG Export Plug-In . SVG Version: 6.00 Build 0)  -->
<svg version="1.1" id="mainicon" xmlns="http://www.w3.org/2000/svg" xmlns:xlink="http://www.w3.org/1999/xlink" x="0px" y="0px"
	 viewBox="0 0 73.3 72.1" style="enable-background:new 0 0 73.3 72.1;" xml:space="preserve">
<style type="text/css">
	.st0{fill:none;stroke:#2C2A6B;stroke-width:2.641;stroke-linecap:round;stroke-linejoin:round;}
	.st1{fill:none;stroke:#2C2A6B;stroke-width:3.961;stroke-linecap:round;stroke-linejoin:round;}
</style>
<path id="bulb" class="st0" d="M49,24.7v0.5v0.1c2.5,1.1,5.5,1.1,8,0l0-0.1v-2.7v-0.6c3.4-1.5,5.7-4.9,5.7-8.9
	c0-5.4-4.3-9.7-9.7-9.7c-5.4,0-9.7,4.3-9.7,9.7c0,2.9,1.3,5.5,3.3,7.3 M57.1,29.8c-2.6,1.2-5.5,1.2-8.1,0"/>
<path id="person" class="st1" d="M46.2,48.9c6,4.8,9.8,12.1,9.8,20.4h-52c0-8.3,3.8-15.6,9.8-20.4 M43.5,34.1
	c-2,5.3-7.2,9.2-13.2,9.3c-8,0.1-14.5-6.2-14.7-14.2c-0.1-8,6.2-14.5,14.2-14.7c2.5,0,4.8,0.5,6.8,1.6"/>
</svg>
